<svg width="42" height="42" viewBox="0 0 42 42" fill="none" xmlns="http://www.w3.org/2000/svg">
<circle cx="21" cy="21" r="20.5" fill="white" stroke="#0DDD79"/>
<path d="M22.15 26.9C22.15 27.48 21.94 27.98 21.52 28.4C21.12 28.8 20.63 29 20.05 29H11.65C11.07 29 10.57 28.8 10.15 28.4C9.75 27.98 9.55 27.48 9.55 26.9V16.4C9.55 15.82 9.75 15.33 10.15 14.93C10.57 14.51 11.07 14.3 11.65 14.3H20.05C20.63 14.3 21.12 14.51 21.52 14.93C21.94 15.33 22.15 15.82 22.15 16.4V18.5H19.75V16.4H11.95V26.9H19.75V24.8H22.15V26.9Z" fill="#0DDD79"/>
<path d="M20 21.5128L35.1124 21.5128" stroke="black" stroke-width="4"/>
</svg>
